<?xml version="1.0" encoding="UTF-8" standalone="no"?>
<svg
   xmlns:dc="http://purl.org/dc/elements/1.1/"
   xmlns:cc="http://creativecommons.org/ns#"
   xmlns:rdf="http://www.w3.org/1999/02/22-rdf-syntax-ns#"
   xmlns:svg="http://www.w3.org/2000/svg"
   xmlns="http://www.w3.org/2000/svg"
   xmlns:sodipodi="http://sodipodi.sourceforge.net/DTD/sodipodi-0.dtd"
   xmlns:inkscape="http://www.inkscape.org/namespaces/inkscape"
   version="1.0"
   width="20"
   height="20"
   id="svg2"
   sodipodi:version="0.32"
   inkscape:version="0.91 r13725"
   sodipodi:docname="plane_red.svg"
   inkscape:output_extension="org.inkscape.output.svg.inkscape">
  <metadata
     id="metadata16">
    <rdf:RDF>
      <cc:Work
         rdf:about="">
        <dc:format>image/svg+xml</dc:format>
        <dc:type
           rdf:resource="http://purl.org/dc/dcmitype/StillImage" />
        <dc:title></dc:title>
      </cc:Work>
    </rdf:RDF>
  </metadata>
  <sodipodi:namedview
     inkscape:window-height="1377"
     inkscape:window-width="2560"
     inkscape:pageshadow="2"
     inkscape:pageopacity="0.0"
     guidetolerance="10.0"
     gridtolerance="10.0"
     objecttolerance="10.0"
     borderopacity="1.0"
     bordercolor="#666666"
     pagecolor="#ffffff"
     id="base"
     showgrid="false"
     inkscape:zoom="11.55"
     inkscape:cx="16.576935"
     inkscape:cy="10.772134"
     inkscape:window-x="-8"
     inkscape:window-y="-8"
     inkscape:current-layer="svg2"
     inkscape:window-maximized="1" />
  <defs
     id="defs4">
    <inkscape:perspective
       sodipodi:type="inkscape:persp3d"
       inkscape:vp_x="0 : 10 : 1"
       inkscape:vp_y="0 : 1000 : 0"
       inkscape:vp_z="20 : 10 : 1"
       inkscape:persp3d-origin="10 : 6.6666667 : 1"
       id="perspective18" />
    <filter
       id="filter">
      <feGaussianBlur
         stdDeviation="0.4858"
         id="feGaussianBlur7" />
    </filter>
  </defs>
  <path
     style="fill:#ff0000;fill-opacity:1"
     id="path13"
     d="m 11.096669,1.5810783 c -0.09528,-3e-7 -0.151614,0.065514 -0.342482,0.5853781 -0.02253,0.06136 -0.06801,0.3230514 -0.06801,0.3230514 10e-7,-2e-7 -0.152508,0.00729 -0.191887,0.00729 -0.07613,0 -0.179096,0.067881 -0.230751,0.1505955 -0.160264,0.2566227 -0.4104935,1.6690012 -0.4104935,2.3196527 0,0.403774 -0.03383,0.6457725 -0.09716,0.6946811 -0.05344,0.041273 -0.333662,0.1685176 -0.621814,0.2817594 -0.508432,0.1998116 -0.635895,0.2116713 -4.313826,0.4080655 -2.91258,0.1555267 -3.82941899,0.2287524 -3.96648499,0.3157637 -0.380047,0.2412598 -0.399836,0.7986651 -0.06558,1.8532936 l 0.172456,0.5440865 c 0,0 8.96527599,1.4840932 8.96527599,1.4840932 l 0.7529765,5.5113 -0.199173,0.05587 c -0.109481,0.03031 -0.8449725,0.11119 -1.6346885,0.179742 -0.789716,0.06855 -1.480511,0.161158 -1.535101,0.206463 -0.219452,0.182128 -0.047,1.617684 0.194317,1.617683 0.380873,1e-6 1.789084,0.189369 1.863009,0.250183 0.05278,0.04342 1.2629835,0.206462 1.7294165,0.206461 0.466434,10e-7 1.676637,-0.163041 1.729416,-0.206461 0.07392,-0.06081 1.482137,-0.250181 1.86301,-0.250183 0.241314,0 0.413769,-1.435555 0.194315,-1.617684 -0.05459,-0.0453 -0.745382,-0.137906 -1.535098,-0.206462 -0.789716,-0.06855 -1.525208,-0.149431 -1.634689,-0.179743 l -0.199173,-0.05587 0.752976,-5.511301 c 0,0 8.965277,-1.4840932 8.965278,-1.4840922 l 0.172453,-0.54409 C 21.739411,7.4659757 21.719622,6.9085712 21.339575,6.6673119 21.202508,6.5803001 20.285672,6.5070735 17.373091,6.3515476 13.695159,6.1551524 13.567697,6.1432932 13.059266,5.9434833 12.771114,5.8302413 12.490891,5.7029965 12.437452,5.6617243 c -0.06332,-0.048909 -0.09716,-0.2909076 -0.09716,-0.6946816 0,-0.6506514 -0.25023,-2.0630299 -0.410494,-2.3196527 -0.05166,-0.082715 -0.154617,-0.1505951 -0.23075,-0.1505956 -0.03938,2e-7 -0.18946,-0.00729 -0.18946,-0.00729 0,0 -0.04548,-0.2616918 -0.06801,-0.3230508 C 11.250711,1.6465929 11.191948,1.5810782 11.096669,1.5810783 Z"
     inkscape:connector-curvature="0" />
</svg>
